<?xml version="1.0" encoding="UTF-8"?>
<svg version="1.1" xmlns="http://www.w3.org/2000/svg" width="1919" height="1260">
<path d="M0 0 C633.27 0 1266.54 0 1919 0 C1919 264 1919 528 1919 800 C1854.58364598 800 1854.58364598 800 1831.71875 799.5625 C1829.15320578 799.51723037 1826.58765372 799.47240283 1824.02209473 799.42797852 C1817.49946903 799.31392341 1810.97696242 799.19416498 1804.45446777 799.07287598 C1798.37786098 798.96089159 1792.30117106 798.8537091 1786.22447872 798.74648476 C1772.48287022 798.50388904 1758.74139271 798.25450823 1745 798 C1745.76987899 793.66267295 1747.16636823 790.45178231 1749.2734375 786.5625 C1749.76005356 785.65866577 1749.76005356 785.65866577 1750.25650024 784.73657227 C1751.28991599 782.82101774 1752.33242584 780.91058225 1753.375 779 C1754.06828237 777.71645572 1754.76099639 776.43260429 1755.453125 775.1484375 C1760.58373442 765.65706361 1760.58373442 765.65706361 1762.70336914 762.3112793 C1764.62430194 758.88716504 1764.29806977 755.79165556 1764 752 C1763.88180908 750.45965088 1763.88180908 750.45965088 1763.76123047 748.88818359 C1761.87688011 728.75006674 1756.80212263 713.74164794 1745.7434082 696.81054688 C1744 694 1744 694 1742.88745117 691.43945312 C1738.30176789 681.38787487 1727.55054917 676.9303384 1718.1875 672.125 C1716.74144379 671.373965 1716.74144379 671.373965 1715.26617432 670.60775757 C1694.70369201 660.20741313 1675.02740439 659.3135579 1653 666 C1649.42192348 667.35891206 1646.23862317 668.96948164 1643 671 C1642.2467041 671.46108154 1641.4934082 671.92216309 1640.71728516 672.3972168 C1638.49502768 673.79299317 1636.30690302 675.22959207 1634.125 676.6875 C1632.67051006 677.65161173 1631.21482113 678.61391761 1629.7578125 679.57421875 C1628.81639404 680.20203247 1628.81639404 680.20203247 1627.85595703 680.8425293 C1625.95545915 682.02777797 1624.01772499 683.03020825 1622 684 C1621.01524786 682.90081184 1620.03739527 681.7954398 1619.0625 680.6875 C1618.51722656 680.07261719 1617.97195313 679.45773437 1617.41015625 678.82421875 C1615.02143915 675.7341055 1614.80645539 672.72495597 1614.51928711 668.94946289 C1614.43927963 667.92152115 1614.35927216 666.89357941 1614.27684021 665.83448792 C1614.15333946 664.17038124 1614.15333946 664.17038124 1614.02734375 662.47265625 C1613.8962899 660.76196205 1613.8962899 660.76196205 1613.7625885 659.01670837 C1613.57845529 656.60347904 1613.39616707 654.19010833 1613.21557617 651.77661133 C1612.93885267 648.08056693 1612.65644777 644.38499092 1612.37304688 640.68945312 C1612.19497797 638.34637957 1612.01723279 636.00328138 1611.83984375 633.66015625 C1611.75548569 632.55277603 1611.67112762 631.44539581 1611.58421326 630.30445862 C1611.50735794 629.27336472 1611.43050262 628.24227081 1611.35131836 627.17993164 C1611.28327499 626.27408829 1611.21523163 625.36824493 1611.14512634 624.43495178 C1611.01747648 622.2932231 1611 620.14552936 1611 618 C1610.08611511 617.9359346 1609.17223022 617.8718692 1608.23065186 617.80586243 C1599.24547283 617.1757682 1590.26037742 616.54449433 1581.27535629 615.91215229 C1575.79146389 615.52625199 1570.30751847 615.14112249 1564.82350159 614.7569952 C1562.15188879 614.56949215 1559.48036388 614.38076729 1556.80883789 614.19203186 C1552.98092381 613.9220052 1549.15260277 613.65884925 1545.32397461 613.39915466 C1535.37918147 612.71657176 1525.44828276 611.96861268 1515.52293777 611.04200172 C1461.49023758 606.01881347 1407.47460092 606.17525108 1353.24752808 606.29724121 C1345.42844527 606.31416094 1337.60938167 606.31809914 1329.7902832 606.32104492 C1245.88897299 606.36603583 1162.13603277 608.0181294 1078.33203125 612.08537292 C1064.20667306 612.76201473 1050.14197289 613.18364306 1036 613 C1036.16197498 613.54882497 1036.32394997 614.09764994 1036.49083328 614.66310596 C1037.06563169 617.30122612 1037.13440023 619.68958122 1037.14666748 622.39030457 C1037.15449753 623.48614365 1037.16232758 624.58198273 1037.1703949 625.71102905 C1037.17644493 627.50958847 1037.17644493 627.50958847 1037.18261719 629.34448242 C1037.19571041 631.29176935 1037.20882714 633.23905624 1037.22279119 635.18633711 C1037.23254914 636.5706359 1037.24172101 637.95493892 1037.25034952 639.3392452 C1037.28303724 644.48247433 1037.3361049 649.62522305 1037.40093994 654.7681427 C1037.41042404 655.52080593 1037.41990814 656.27346916 1037.42967963 657.04894036 C1037.4693365 660.16013496 1037.50974889 663.27131903 1037.55074644 666.38249624 C1037.66515279 675.10946994 1037.76088767 683.83553012 1037.79248047 692.56323242 C1037.82900234 701.76615204 1037.9260195 710.96674792 1038.109375 720.16796875 C1038.12424517 720.91807142 1038.13911533 721.66817409 1038.15443611 722.44100714 C1038.73692751 749.66712214 1043.11741598 774.48289825 1051.84234619 800.414505 C1053 804 1053 804 1053 806 C991.24653697 806.01743013 929.49307365 806.03327929 867.73960876 806.04234314 C866.80152663 806.0424812 865.8634445 806.04261925 864.89693563 806.04276149 C844.43078115 806.04576564 823.96462664 806.04853415 803.4984721 806.05106533 C793.4385159 806.05231092 783.37855971 806.05360771 773.31860352 806.05493164 C772.31837158 806.0550624 771.31813964 806.05519316 770.28759764 806.05532788 C738.80372239 806.05946713 707.31984913 806.06687576 675.83597505 806.07629722 C643.0362239 806.08609282 610.23647381 806.09196351 577.43672123 806.09391499 C572.63083801 806.09420248 567.82495479 806.0945281 563.01907158 806.09487724 C561.60246406 806.09497838 561.60246406 806.09497838 560.1572382 806.09508156 C548.65905632 806.09597727 537.16087646 806.09832408 525.6626956 806.1033227 C350.4401689 806.17728992 175.22299016 805.49638241 0 805 C0 539.35 0 273.7 0 0 Z " fill="#000000" transform="translate(0,0)"/>
<path d="M0 0 C1.03874268 0.65234619 2.07748535 1.30469238 3.14770508 1.97680664 C3.70919754 2.32578506 4.27069 2.67476349 4.84919739 3.03431702 C6.62776457 4.1427663 8.39743415 5.2645846 10.16723633 6.38696289 C11.36654972 7.13720203 12.56641496 7.88655976 13.7668457 8.63500977 C26.25569428 16.43900249 26.25569428 16.43900249 28.08032227 21.20288086 C28.46371765 22.19085663 28.84711304 23.1788324 29.24212646 24.19674683 C29.64538147 25.267565 30.04863647 26.33838318 30.46411133 27.44165039 C30.88396301 28.53913605 31.3038147 29.6366217 31.73638916 30.7673645 C32.62201038 33.09070155 33.50263684 35.4159477 34.37866211 37.74291992 C35.72379794 41.30872091 37.0908572 44.86555684 38.46020508 48.42211914 C39.31701225 50.67812169 40.17252473 52.93461647 41.02661133 55.19165039 C41.43796326 56.2584201 41.84931519 57.32518982 42.27313232 58.42428589 C42.64391907 59.41856598 43.01470581 60.41284607 43.39672852 61.43725586 C43.72743347 62.31058563 44.05813843 63.18391541 44.39886475 64.08370972 C45.0424295 66.70479743 44.96017865 67.95817702 43.97973633 70.44946289 C42.40415912 72.49015514 40.81427686 74.40322896 39.10473633 76.32446289 C34.20052535 81.96893213 29.54678805 87.75547114 24.97583008 93.67211914 C24.51878693 94.23373245 24.06174377 94.79534576 23.59085083 95.37397766 C22.33236522 96.99519595 21.1609256 98.68407585 20.02658081 100.39445496 C14.01198279 108.78324481 14.01198279 108.78324481 8.63435364 110.54615784 C4.72496765 110.93123228 0.90906235 110.9585241 -3.00854492 110.84008789 C-4.46469577 110.84018698 -5.92085473 110.84562471 -7.37696838 110.85603333 C-11.23764517 110.86933442 -15.09401091 110.81068787 -18.95388031 110.73720169 C-22.92594507 110.67418853 -26.89788171 110.67893696 -30.87036133 110.67773438 C-37.10050106 110.6682278 -43.32919334 110.62315174 -49.55883789 110.54467773 C-56.66249368 110.45559942 -63.7636618 110.43358177 -70.86791992 110.46899414 C-72.62988266 110.47716415 -74.39184555 110.48530405 -76.15380859 110.4934082 C-76.95192963 110.49715454 -77.75005066 110.50090088 -78.57235718 110.50476074 C-84.05506878 110.52175983 -89.53769054 110.48752818 -95.02026367 110.44946289 C-94.31066119 102.89929247 -92.52834757 95.67549977 -90.70776367 88.32446289 C-90.41192383 87.07536133 -90.11608398 85.82625977 -89.8112793 84.53930664 C-87.83047187 76.5219565 -86.00755917 70.83721988 -79.50854492 65.48071289 C-68.55662423 56.39520522 -64.12161153 47.67554185 -59.13986206 34.6557312 C-50.55079805 12.36464467 -50.55079805 12.36464467 -38.84008789 7.12475586 C-34.37854862 5.57777158 -29.93748762 4.30405747 -25.3269043 3.28491211 C-20.67339728 2.10916632 -16.37507292 0.24374482 -11.98413086 -1.67529297 C-7.28180379 -3.06391262 -4.30266012 -2.20889131 0 0 Z " fill="#000000" transform="translate(1693.020263671875,691.550537109375)"/>
</svg>
